<svg width="393" height="150" viewBox="0 0 393 150" fill="none" xmlns="http://www.w3.org/2000/svg">
<path d="M134.5 15C134.24 15 134.033 14.8123 133.98 14.5331C133.484 11.3281 133.085 10.948 129.981 10.5197C129.702 10.4812 129.5 10.2694 129.5 9.99998C129.5 9.73047 129.707 9.50913 129.986 9.47542C133.095 9.12895 133.537 8.67658 133.98 5.46678C134.024 5.19247 134.235 5 134.5 5C134.76 5 134.971 5.19247 135.015 5.46678C135.501 8.67658 135.92 9.09043 139.019 9.47542C139.293 9.51394 139.5 9.73047 139.5 9.99998C139.5 10.2694 139.293 10.486 139.014 10.5197C135.905 10.871 135.458 11.3233 135.015 14.5331C134.976 14.8074 134.765 15 134.5 15Z" fill="#FEBF05"/>
<path d="M133.5 41C133.24 41 133.033 40.8123 132.98 40.5331C132.484 37.3281 132.085 36.948 128.981 36.5197C128.702 36.4812 128.5 36.2694 128.5 36C128.5 35.7305 128.707 35.5091 128.986 35.4754C132.095 35.129 132.537 34.6766 132.98 31.4668C133.024 31.1925 133.235 31 133.5 31C133.76 31 133.971 31.1925 134.015 31.4668C134.501 34.6766 134.92 35.0904 138.019 35.4754C138.293 35.5139 138.5 35.7305 138.5 36C138.5 36.2694 138.293 36.486 138.014 36.5197C134.905 36.871 134.458 37.3233 134.015 40.5331C133.976 40.8074 133.765 41 133.5 41Z" fill="#FECC13"/>
<path d="M87.5 76C87.2401 76 87.0331 75.8123 86.9801 75.5331C86.4845 72.3281 86.0853 71.948 82.9813 71.5197C82.702 71.4812 82.5 71.2694 82.5 71C82.5 70.7305 82.707 70.5091 82.9862 70.4754C86.0948 70.129 86.5375 69.6766 86.9801 66.4668C87.0237 66.1925 87.2351 66 87.5 66C87.7599 66 87.9714 66.1925 88.0149 66.4668C88.5012 69.6766 88.9196 70.0904 92.0187 70.4754C92.293 70.5139 92.5 70.7305 92.5 71C92.5 71.2694 92.293 71.486 92.0138 71.5197C88.9052 71.871 88.4576 72.3233 88.0149 75.5331C87.9763 75.8074 87.7649 76 87.5 76Z" fill="#FECC13"/>
<path d="M104.5 58C104.24 58 104.033 57.8123 103.98 57.5331C103.484 54.3281 103.085 53.948 99.9813 53.5197C99.702 53.4812 99.5 53.2694 99.5 53C99.5 52.7305 99.707 52.5091 99.9862 52.4754C103.095 52.129 103.537 51.6766 103.98 48.4668C104.024 48.1925 104.235 48 104.5 48C104.76 48 104.971 48.1925 105.015 48.4668C105.501 51.6766 105.92 52.0904 109.019 52.4754C109.293 52.5139 109.5 52.7305 109.5 53C109.5 53.2694 109.293 53.486 109.014 53.5197C105.905 53.871 105.458 54.3233 105.015 57.5331C104.976 57.8074 104.765 58 104.5 58Z" fill="#FF9044"/>
<path d="M127.5 116C127.24 116 127.033 115.812 126.98 115.533C126.484 112.328 126.085 111.948 122.981 111.52C122.702 111.481 122.5 111.269 122.5 111C122.5 110.73 122.707 110.509 122.986 110.475C126.095 110.129 126.537 109.677 126.98 106.467C127.024 106.192 127.235 106 127.5 106C127.76 106 127.971 106.192 128.015 106.467C128.501 109.677 128.92 110.09 132.019 110.475C132.293 110.514 132.5 110.73 132.5 111C132.5 111.269 132.293 111.486 132.014 111.52C128.905 111.871 128.458 112.323 128.015 115.533C127.976 115.807 127.765 116 127.5 116Z" fill="#FECC13"/>
<path d="M62.5 131C62.2401 131 62.0331 130.812 61.9801 130.533C61.4845 127.328 61.0853 126.948 57.9813 126.52C57.702 126.481 57.5 126.269 57.5 126C57.5 125.73 57.707 125.509 57.9862 125.475C61.0948 125.129 61.5375 124.677 61.9801 121.467C62.0237 121.192 62.2351 121 62.5 121C62.7599 121 62.9714 121.192 63.0149 121.467C63.5012 124.677 63.9196 125.09 67.0187 125.475C67.293 125.514 67.5 125.73 67.5 126C67.5 126.269 67.293 126.486 67.0138 126.52C63.9052 126.871 63.4576 127.323 63.0149 130.533C62.9763 130.807 62.7649 131 62.5 131Z" fill="#FECC13"/>
<path d="M105.5 96C105.344 96 105.22 95.8874 105.188 95.7199C104.891 93.7969 104.651 93.5688 102.789 93.3118C102.621 93.2887 102.5 93.1617 102.5 93C102.5 92.8383 102.624 92.7055 102.792 92.6853C104.657 92.4774 104.922 92.2059 105.188 90.2801C105.214 90.1155 105.341 90 105.5 90C105.656 90 105.783 90.1155 105.809 90.2801C106.101 92.2059 106.352 92.4543 108.211 92.6853C108.376 92.7084 108.5 92.8383 108.5 93C108.5 93.1617 108.376 93.2916 108.208 93.3118C106.343 93.5226 106.075 93.794 105.809 95.7199C105.786 95.8844 105.659 96 105.5 96Z" fill="#FEBF05"/>
<path d="M123.5 51C123.344 51 123.22 50.8874 123.188 50.7199C122.891 48.7969 122.651 48.5688 120.789 48.3118C120.621 48.2887 120.5 48.1617 120.5 48C120.5 47.8383 120.624 47.7055 120.792 47.6853C122.657 47.4774 122.922 47.2059 123.188 45.2801C123.214 45.1155 123.341 45 123.5 45C123.656 45 123.783 45.1155 123.809 45.2801C124.101 47.2059 124.352 47.4543 126.211 47.6853C126.376 47.7084 126.5 47.8383 126.5 48C126.5 48.1617 126.376 48.2916 126.208 48.3118C124.343 48.5226 124.075 48.794 123.809 50.7199C123.786 50.8844 123.659 51 123.5 51Z" fill="#FECC13"/>
<path d="M88.5 29C88.344 29 88.2199 28.8874 88.1881 28.7199C87.8907 26.7969 87.6512 26.5688 85.7888 26.3118C85.6212 26.2887 85.5 26.1617 85.5 26C85.5 25.8383 85.6242 25.7055 85.7917 25.6853C87.6569 25.4774 87.9225 25.2059 88.1881 23.2801C88.2142 23.1155 88.3411 23 88.5 23C88.656 23 88.7829 23.1155 88.809 23.2801C89.1007 25.2059 89.3518 25.4543 91.2112 25.6853C91.3758 25.7084 91.5 25.8383 91.5 26C91.5 26.1617 91.3758 26.2916 91.2083 26.3118C89.3431 26.5226 89.0746 26.794 88.809 28.7199C88.7858 28.8844 88.6589 29 88.5 29Z" fill="#FF9044"/>
<path d="M57.5 78C57.344 78 57.2199 77.8874 57.1881 77.7199C56.8907 75.7969 56.6512 75.5688 54.7888 75.3118C54.6212 75.2887 54.5 75.1617 54.5 75C54.5 74.8383 54.6242 74.7055 54.7917 74.6853C56.6569 74.4774 56.9225 74.2059 57.1881 72.2801C57.2142 72.1155 57.3411 72 57.5 72C57.656 72 57.7829 72.1155 57.809 72.2801C58.1007 74.2059 58.3518 74.4543 60.2112 74.6853C60.3758 74.7084 60.5 74.8383 60.5 75C60.5 75.1617 60.3758 75.2916 60.2083 75.3118C58.3431 75.5226 58.0746 75.794 57.809 77.7199C57.7858 77.8844 57.6589 78 57.5 78Z" fill="#FEBF05"/>
<path d="M67.5 110C67.396 110 67.3132 109.925 67.292 109.813C67.0938 108.531 66.9341 108.379 65.6925 108.208C65.5808 108.192 65.5 108.108 65.5 108C65.5 107.892 65.5828 107.804 65.6945 107.79C66.9379 107.652 67.115 107.471 67.292 106.187C67.3095 106.077 67.3941 106 67.5 106C67.604 106 67.6886 106.077 67.706 106.187C67.9005 107.471 68.0678 107.636 69.3075 107.79C69.4172 107.806 69.5 107.892 69.5 108C69.5 108.108 69.4172 108.194 69.3055 108.208C68.0621 108.348 67.883 108.529 67.706 109.813C67.6905 109.923 67.6059 110 67.5 110Z" fill="#FEBF05"/>
<path d="M124.5 77C124.396 77 124.313 76.9249 124.292 76.8132C124.094 75.5313 123.934 75.3792 122.693 75.2079C122.581 75.1925 122.5 75.1078 122.5 75C122.5 74.8922 122.583 74.8037 122.694 74.7902C123.938 74.6516 124.115 74.4706 124.292 73.1867C124.309 73.077 124.394 73 124.5 73C124.604 73 124.689 73.077 124.706 73.1867C124.9 74.4706 125.068 74.6362 126.307 74.7902C126.417 74.8056 126.5 74.8922 126.5 75C126.5 75.1078 126.417 75.1944 126.306 75.2079C125.062 75.3484 124.883 75.5293 124.706 76.8132C124.691 76.923 124.606 77 124.5 77Z" fill="#FF9044"/>
<path d="M144.5 32C144.396 32 144.313 31.9249 144.292 31.8132C144.094 30.5313 143.934 30.3792 142.693 30.2079C142.581 30.1925 142.5 30.1078 142.5 30C142.5 29.8922 142.583 29.8037 142.694 29.7902C143.938 29.6516 144.115 29.4706 144.292 28.1867C144.309 28.077 144.394 28 144.5 28C144.604 28 144.689 28.077 144.706 28.1867C144.9 29.4706 145.068 29.6362 146.307 29.7902C146.417 29.8056 146.5 29.8922 146.5 30C146.5 30.1078 146.417 30.1944 146.306 30.2079C145.062 30.3484 144.883 30.5293 144.706 31.8132C144.691 31.923 144.606 32 144.5 32Z" fill="#FF9044"/>
<path d="M119.5 17C119.396 17 119.313 16.9249 119.292 16.8132C119.094 15.5313 118.934 15.3792 117.693 15.2079C117.581 15.1925 117.5 15.1078 117.5 15C117.5 14.8922 117.583 14.8037 117.694 14.7902C118.938 14.6516 119.115 14.4706 119.292 13.1867C119.309 13.077 119.394 13 119.5 13C119.604 13 119.689 13.077 119.706 13.1867C119.9 14.4706 120.068 14.6362 121.307 14.7902C121.417 14.8056 121.5 14.8922 121.5 15C121.5 15.1078 121.417 15.1944 121.306 15.2079C120.062 15.3484 119.883 15.5293 119.706 16.8132C119.691 16.923 119.606 17 119.5 17Z" fill="#FF9044"/>
<path d="M75.5 123C75.344 123 75.2199 122.887 75.1881 122.72C74.8907 120.797 74.6512 120.569 72.7888 120.312C72.6212 120.289 72.5 120.162 72.5 120C72.5 119.838 72.6242 119.705 72.7917 119.685C74.6569 119.477 74.9225 119.206 75.1881 117.28C75.2142 117.115 75.3411 117 75.5 117C75.656 117 75.7829 117.115 75.809 117.28C76.1007 119.206 76.3518 119.454 78.2112 119.685C78.3758 119.708 78.5 119.838 78.5 120C78.5 120.162 78.3758 120.292 78.2083 120.312C76.3431 120.523 76.0746 120.794 75.809 122.72C75.7858 122.884 75.6589 123 75.5 123Z" fill="#FEBF05"/>
<path d="M101.5 104C101.344 104 101.22 103.887 101.188 103.72C100.891 101.797 100.651 101.569 98.7888 101.312C98.6212 101.289 98.5 101.162 98.5 101C98.5 100.838 98.6242 100.705 98.7917 100.685C100.657 100.477 100.922 100.206 101.188 98.2801C101.214 98.1155 101.341 98 101.5 98C101.656 98 101.783 98.1155 101.809 98.2801C102.101 100.206 102.352 100.454 104.211 100.685C104.376 100.708 104.5 100.838 104.5 101C104.5 101.162 104.376 101.292 104.208 101.312C102.343 101.523 102.075 101.794 101.809 103.72C101.786 103.884 101.659 104 101.5 104Z" fill="#FF9044"/>
<path d="M171.5 21C171.344 21 171.22 20.8874 171.188 20.7199C170.891 18.7969 170.651 18.5688 168.789 18.3118C168.621 18.2887 168.5 18.1617 168.5 18C168.5 17.8383 168.624 17.7055 168.792 17.6853C170.657 17.4774 170.922 17.2059 171.188 15.2801C171.214 15.1155 171.341 15 171.5 15C171.656 15 171.783 15.1155 171.809 15.2801C172.101 17.2059 172.352 17.4543 174.211 17.6853C174.376 17.7084 174.5 17.8383 174.5 18C174.5 18.1617 174.376 18.2916 174.208 18.3118C172.343 18.5226 172.075 18.794 171.809 20.7199C171.786 20.8844 171.659 21 171.5 21Z" fill="#FF9044"/>
<path d="M183.5 10C183.344 10 183.22 9.8874 183.188 9.71986C182.891 7.79689 182.651 7.5688 180.789 7.31182C180.621 7.28871 180.5 7.16167 180.5 6.99999C180.5 6.83828 180.624 6.70548 180.792 6.68525C182.657 6.47737 182.922 6.20595 183.188 4.28007C183.214 4.11548 183.341 4 183.5 4C183.656 4 183.783 4.11548 183.809 4.28007C184.101 6.20595 184.352 6.45426 186.211 6.68525C186.376 6.70836 186.5 6.83828 186.5 6.99999C186.5 7.16167 186.376 7.29161 186.208 7.31182C184.343 7.5226 184.075 7.794 183.809 9.71986C183.786 9.88444 183.659 10 183.5 10Z" fill="#FECC13"/>
<path d="M76.5 86C76.344 86 76.2199 85.8874 76.1881 85.7199C75.8907 83.7969 75.6512 83.5688 73.7888 83.3118C73.6212 83.2887 73.5 83.1617 73.5 83C73.5 82.8383 73.6242 82.7055 73.7917 82.6853C75.6569 82.4774 75.9225 82.2059 76.1881 80.2801C76.2142 80.1155 76.3411 80 76.5 80C76.656 80 76.7829 80.1155 76.809 80.2801C77.1007 82.2059 77.3518 82.4543 79.2112 82.6853C79.3758 82.7084 79.5 82.8383 79.5 83C79.5 83.1617 79.3758 83.2916 79.2083 83.3118C77.3431 83.5226 77.0746 83.794 76.809 85.7199C76.7858 85.8844 76.6589 86 76.5 86Z" fill="#FF9044"/>
<path d="M304 64C303.74 64 303.533 63.8123 303.48 63.5331C302.984 60.3281 302.585 59.948 299.481 59.5197C299.202 59.4812 299 59.2694 299 59C299 58.7305 299.207 58.5091 299.486 58.4754C302.595 58.129 303.037 57.6766 303.48 54.4668C303.524 54.1925 303.735 54 304 54C304.26 54 304.471 54.1925 304.515 54.4668C305.001 57.6766 305.42 58.0904 308.519 58.4754C308.793 58.5139 309 58.7305 309 59C309 59.2694 308.793 59.486 308.514 59.5197C305.405 59.871 304.958 60.3233 304.515 63.5331C304.476 63.8074 304.265 64 304 64Z" fill="#FECC13"/>
<path d="M328.5 43C328.24 43 328.033 42.8123 327.98 42.5331C327.484 39.3281 327.085 38.948 323.981 38.5197C323.702 38.4812 323.5 38.2694 323.5 38C323.5 37.7305 323.707 37.5091 323.986 37.4754C327.095 37.129 327.537 36.6766 327.98 33.4668C328.024 33.1925 328.235 33 328.5 33C328.76 33 328.971 33.1925 329.015 33.4668C329.501 36.6766 329.92 37.0904 333.019 37.4754C333.293 37.5139 333.5 37.7305 333.5 38C333.5 38.2694 333.293 38.486 333.014 38.5197C329.905 38.871 329.458 39.3233 329.015 42.5331C328.976 42.8074 328.765 43 328.5 43Z" fill="#FECC13"/>
<path d="M287.5 29C287.24 29 287.033 28.8123 286.98 28.5331C286.484 25.3281 286.085 24.948 282.981 24.5197C282.702 24.4812 282.5 24.2694 282.5 24C282.5 23.7305 282.707 23.5091 282.986 23.4754C286.095 23.129 286.537 22.6766 286.98 19.4668C287.024 19.1925 287.235 19 287.5 19C287.76 19 287.971 19.1925 288.015 19.4668C288.501 22.6766 288.92 23.0904 292.019 23.4754C292.293 23.5139 292.5 23.7305 292.5 24C292.5 24.2694 292.293 24.486 292.014 24.5197C288.905 24.871 288.458 25.3233 288.015 28.5331C287.976 28.8074 287.765 29 287.5 29Z" fill="#FECC13"/>
<path d="M242.5 32C242.24 32 242.033 31.8123 241.98 31.5331C241.484 28.3281 241.085 27.948 237.981 27.5197C237.702 27.4812 237.5 27.2694 237.5 27C237.5 26.7305 237.707 26.5091 237.986 26.4754C241.095 26.129 241.537 25.6766 241.98 22.4668C242.024 22.1925 242.235 22 242.5 22C242.76 22 242.971 22.1925 243.015 22.4668C243.501 25.6766 243.92 26.0904 247.019 26.4754C247.293 26.5139 247.5 26.7305 247.5 27C247.5 27.2694 247.293 27.486 247.014 27.5197C243.905 27.871 243.458 28.3233 243.015 31.5331C242.976 31.8074 242.765 32 242.5 32Z" fill="#FECC13"/>
<path d="M220 16C219.74 16 219.533 15.8123 219.48 15.5331C218.984 12.3281 218.585 11.948 215.481 11.5197C215.202 11.4812 215 11.2694 215 11C215 10.7305 215.207 10.5091 215.486 10.4754C218.595 10.129 219.037 9.67658 219.48 6.46678C219.524 6.19247 219.735 6 220 6C220.26 6 220.471 6.19247 220.515 6.46678C221.001 9.67658 221.42 10.0904 224.519 10.4754C224.793 10.5139 225 10.7305 225 11C225 11.2694 224.793 11.486 224.514 11.5197C221.405 11.871 220.958 12.3233 220.515 15.5331C220.476 15.8074 220.265 16 220 16Z" fill="#FEBF05"/>
<path d="M309.5 23C309.24 23 309.033 22.8123 308.98 22.5331C308.484 19.3281 308.085 18.948 304.981 18.5197C304.702 18.4812 304.5 18.2694 304.5 18C304.5 17.7305 304.707 17.5091 304.986 17.4754C308.095 17.129 308.537 16.6766 308.98 13.4668C309.024 13.1925 309.235 13 309.5 13C309.76 13 309.971 13.1925 310.015 13.4668C310.501 16.6766 310.92 17.0904 314.019 17.4754C314.293 17.5139 314.5 17.7305 314.5 18C314.5 18.2694 314.293 18.486 314.014 18.5197C310.905 18.871 310.458 19.3233 310.015 22.5331C309.976 22.8074 309.765 23 309.5 23Z" fill="#FECC13"/>
<path d="M323.5 62C323.24 62 323.033 61.8123 322.98 61.5331C322.484 58.3281 322.085 57.948 318.981 57.5197C318.702 57.4812 318.5 57.2694 318.5 57C318.5 56.7305 318.707 56.5091 318.986 56.4754C322.095 56.129 322.537 55.6766 322.98 52.4668C323.024 52.1925 323.235 52 323.5 52C323.76 52 323.971 52.1925 324.015 52.4668C324.501 55.6766 324.92 56.0904 328.019 56.4754C328.293 56.5139 328.5 56.7305 328.5 57C328.5 57.2694 328.293 57.486 328.014 57.5197C324.905 57.871 324.458 58.3233 324.015 61.5331C323.976 61.8074 323.765 62 323.5 62Z" fill="#FECC13"/>
<path d="M309 47C308.844 47 308.72 46.8874 308.688 46.7199C308.391 44.7969 308.151 44.5688 306.289 44.3118C306.121 44.2887 306 44.1617 306 44C306 43.8383 306.124 43.7055 306.292 43.6853C308.157 43.4774 308.422 43.2059 308.688 41.2801C308.714 41.1155 308.841 41 309 41C309.156 41 309.283 41.1155 309.309 41.2801C309.601 43.2059 309.852 43.4543 311.711 43.6853C311.876 43.7084 312 43.8383 312 44C312 44.1617 311.876 44.2916 311.708 44.3118C309.843 44.5226 309.575 44.794 309.309 46.7199C309.286 46.8844 309.159 47 309 47Z" fill="#FEBF05"/>
<path d="M306 128C305.844 128 305.72 127.887 305.688 127.72C305.391 125.797 305.151 125.569 303.289 125.312C303.121 125.289 303 125.162 303 125C303 124.838 303.124 124.705 303.292 124.685C305.157 124.477 305.422 124.206 305.688 122.28C305.714 122.115 305.841 122 306 122C306.156 122 306.283 122.115 306.309 122.28C306.601 124.206 306.852 124.454 308.711 124.685C308.876 124.708 309 124.838 309 125C309 125.162 308.876 125.292 308.708 125.312C306.843 125.523 306.575 125.794 306.309 127.72C306.286 127.884 306.159 128 306 128Z" fill="#FECC13"/>
<path d="M283.5 81C283.344 81 283.22 80.8874 283.188 80.7199C282.891 78.7969 282.651 78.5688 280.789 78.3118C280.621 78.2887 280.5 78.1617 280.5 78C280.5 77.8383 280.624 77.7055 280.792 77.6853C282.657 77.4774 282.922 77.2059 283.188 75.2801C283.214 75.1155 283.341 75 283.5 75C283.656 75 283.783 75.1155 283.809 75.2801C284.101 77.2059 284.352 77.4543 286.211 77.6853C286.376 77.7084 286.5 77.8383 286.5 78C286.5 78.1617 286.376 78.2916 286.208 78.3118C284.343 78.5226 284.075 78.794 283.809 80.7199C283.786 80.8844 283.659 81 283.5 81Z" fill="#FEBF05"/>
<path d="M262 55C261.844 55 261.72 54.8874 261.688 54.7199C261.391 52.7969 261.151 52.5688 259.289 52.3118C259.121 52.2887 259 52.1617 259 52C259 51.8383 259.124 51.7055 259.292 51.6853C261.157 51.4774 261.422 51.2059 261.688 49.2801C261.714 49.1155 261.841 49 262 49C262.156 49 262.283 49.1155 262.309 49.2801C262.601 51.2059 262.852 51.4543 264.711 51.6853C264.876 51.7084 265 51.8383 265 52C265 52.1617 264.876 52.2916 264.708 52.3118C262.843 52.5226 262.575 52.794 262.309 54.7199C262.286 54.8844 262.159 55 262 55Z" fill="#FF9044"/>
<path d="M274 32C273.844 32 273.72 31.8874 273.688 31.7199C273.391 29.7969 273.151 29.5688 271.289 29.3118C271.121 29.2887 271 29.1617 271 29C271 28.8383 271.124 28.7055 271.292 28.6853C273.157 28.4774 273.422 28.2059 273.688 26.2801C273.714 26.1155 273.841 26 274 26C274.156 26 274.283 26.1155 274.309 26.2801C274.601 28.2059 274.852 28.4543 276.711 28.6853C276.876 28.7084 277 28.8383 277 29C277 29.1617 276.876 29.2916 276.708 29.3118C274.843 29.5226 274.575 29.794 274.309 31.7199C274.286 31.8844 274.159 32 274 32Z" fill="#FF9044"/>
<path d="M256 13C255.844 13 255.72 12.8874 255.688 12.7199C255.391 10.7969 255.151 10.5688 253.289 10.3118C253.121 10.2887 253 10.1617 253 9.99999C253 9.83828 253.124 9.70548 253.292 9.68525C255.157 9.47737 255.422 9.20595 255.688 7.28007C255.714 7.11548 255.841 7 256 7C256.156 7 256.283 7.11548 256.309 7.28007C256.601 9.20595 256.852 9.45426 258.711 9.68525C258.876 9.70836 259 9.83828 259 9.99999C259 10.1617 258.876 10.2916 258.708 10.3118C256.843 10.5226 256.575 10.794 256.309 12.7199C256.286 12.8844 256.159 13 256 13Z" fill="#FECC13"/>
<path d="M319 87C318.844 87 318.72 86.8874 318.688 86.7199C318.391 84.7969 318.151 84.5688 316.289 84.3118C316.121 84.2887 316 84.1617 316 84C316 83.8383 316.124 83.7055 316.292 83.6853C318.157 83.4774 318.422 83.2059 318.688 81.2801C318.714 81.1155 318.841 81 319 81C319.156 81 319.283 81.1155 319.309 81.2801C319.601 83.2059 319.852 83.4543 321.711 83.6853C321.876 83.7084 322 83.8383 322 84C322 84.1617 321.876 84.2916 321.708 84.3118C319.843 84.5226 319.575 84.794 319.309 86.7199C319.286 86.8844 319.159 87 319 87Z" fill="#FEBF05"/>
<path d="M277 59C276.74 59 276.533 58.8123 276.48 58.5331C275.984 55.3281 275.585 54.948 272.481 54.5197C272.202 54.4812 272 54.2694 272 54C272 53.7305 272.207 53.5091 272.486 53.4754C275.595 53.129 276.037 52.6766 276.48 49.4668C276.524 49.1925 276.735 49 277 49C277.26 49 277.471 49.1925 277.515 49.4668C278.001 52.6766 278.42 53.0904 281.519 53.4754C281.793 53.5139 282 53.7305 282 54C282 54.2694 281.793 54.486 281.514 54.5197C278.405 54.871 277.958 55.3233 277.515 58.5331C277.476 58.8074 277.265 59 277 59Z" fill="#FECC13"/>
<path d="M278.5 107C278.24 107 278.033 106.812 277.98 106.533C277.484 103.328 277.085 102.948 273.981 102.52C273.702 102.481 273.5 102.269 273.5 102C273.5 101.73 273.707 101.509 273.986 101.475C277.095 101.129 277.537 100.677 277.98 97.4668C278.024 97.1925 278.235 97 278.5 97C278.76 97 278.971 97.1925 279.015 97.4668C279.501 100.677 279.92 101.09 283.019 101.475C283.293 101.514 283.5 101.73 283.5 102C283.5 102.269 283.293 102.486 283.014 102.52C279.905 102.871 279.458 103.323 279.015 106.533C278.976 106.807 278.765 107 278.5 107Z" fill="#FECC13"/>
<path d="M288.5 99C288.292 99 288.126 98.8499 288.084 98.6265C287.688 96.0625 287.368 95.7584 284.885 95.4158C284.662 95.3849 284.5 95.2156 284.5 95C284.5 94.7844 284.666 94.6073 284.889 94.5803C287.376 94.3032 287.73 93.9413 288.084 91.3734C288.119 91.154 288.288 91 288.5 91C288.708 91 288.877 91.154 288.912 91.3734C289.301 93.9413 289.636 94.2723 292.115 94.5803C292.334 94.6111 292.5 94.7844 292.5 95C292.5 95.2156 292.334 95.3888 292.111 95.4158C289.624 95.6968 289.266 96.0587 288.912 98.6265C288.881 98.8459 288.712 99 288.5 99Z" fill="#FF9044"/>
<path d="M340.5 117C340.292 117 340.126 116.85 340.084 116.626C339.688 114.063 339.368 113.758 336.885 113.416C336.662 113.385 336.5 113.216 336.5 113C336.5 112.784 336.666 112.607 336.889 112.58C339.376 112.303 339.73 111.941 340.084 109.373C340.119 109.154 340.288 109 340.5 109C340.708 109 340.877 109.154 340.912 109.373C341.301 111.941 341.636 112.272 344.115 112.58C344.334 112.611 344.5 112.784 344.5 113C344.5 113.216 344.334 113.389 344.111 113.416C341.624 113.697 341.266 114.059 340.912 116.626C340.881 116.846 340.712 117 340.5 117Z" fill="#FF9044"/>
</svg>
